<svg xmlns="http://www.w3.org/2000/svg" viewBox="0 0 24 24"><rect width="24" height="24" style="fill-opacity:0"/><path d="M4.32,4.12A2.28,2.28,0,0,0,2,6.4V17.6a2.28,2.28,0,0,0,2.28,2.28H19.68A2.28,2.28,0,0,0,22,17.6V6.4a2.28,2.28,0,0,0-2.28-2.28ZM5.75,7.88a.85.85,0,0,1,.94.36L8.47,11.1l1.79-2.86a.84.84,0,0,1,.93-.36.83.83,0,0,1,.6.8v6.64a.83.83,0,0,1-1.66,0V11.57l-1,1.53a.83.83,0,0,1-.71.39.81.81,0,0,1-.7-.39l-1-1.53v3.75a.83.83,0,0,1-1.66,0V8.68A.84.84,0,0,1,5.75,7.88Zm11.44.39a.42.42,0,0,0-.42-.42h-.83a.41.41,0,0,0-.41.42V12.5l-.62-.25L14.28,12a.84.84,0,0,0-.75.48.83.83,0,0,0,.11.88l2.08,2.49a.83.83,0,0,0,.64.3.85.85,0,0,0,.64-.3l2.07-2.49a.81.81,0,0,0,.11-.88.83.83,0,0,0-.75-.48l-.66.23-.58.27Z" style="fill-rule:evenodd"/></svg>