<svg id='Markdown_1_24' width='24' height='24' viewBox='0 0 24 24' xmlns='http://www.w3.org/2000/svg' xmlns:xlink='http://www.w3.org/1999/xlink'><rect width='24' height='24' stroke='none' fill='#000000' opacity='0'/>
<g transform="matrix(0.83 0 0 0.83 12 12)" >
<path style="stroke: none; stroke-width: 1; stroke-dasharray: none; stroke-linecap: butt; stroke-dashoffset: 0; stroke-linejoin: miter; stroke-miterlimit: 4; fill: rgb(0,0,0); fill-rule: evenodd; opacity: 1;" transform=" translate(-12, -12)" d="M 2.75 2.5 C 1.23122 2.5 0 3.73122 0 5.25 L 0 18.75 C 0 20.2688 1.23122 21.5 2.75 21.5 L 21.25 21.5 C 22.7688 21.5 24 20.2688 24 18.75 L 24 5.25 C 24 3.73122 22.7688 2.5 21.25 2.5 L 2.75 2.5 Z M 4.47432 7.03875 C 4.90314 6.91577 5.36156 7.0917 5.598 7.47 L 7.75 10.9132 L 9.902 7.47 C 10.1384 7.0917 10.5969 6.91577 11.0257 7.03875 C 11.4545 7.16174 11.75 7.55389 11.75 8 L 11.75 16 C 11.75 16.5523 11.3023 17 10.75 17 C 10.1977 17 9.75 16.5523 9.75 16 L 9.75 11.4868 L 8.598 13.33 C 8.41526 13.6224 8.09479 13.8 7.75 13.8 C 7.40521 13.8 7.08474 13.6224 6.902 13.33 L 5.75 11.4868 L 5.75 16 C 5.75 16.5523 5.30228 17 4.75 17 C 4.19772 17 3.75 16.5523 3.75 16 L 3.75 8 C 3.75 7.55389 4.0455 7.16174 4.47432 7.03875 Z M 18.25 7.5 C 18.25 7.22386 18.0261 7 17.75 7 L 16.75 7 C 16.4739 7 16.25 7.22386 16.25 7.5 L 16.25 12 L 14.75 12 C 14.362 12 14.009 12.2245 13.8444 12.5758 C 13.6798 12.9272 13.7334 13.3421 13.9818 13.6402 L 16.4818 16.6402 C 16.6718 16.8682 16.9532 17 17.25 17 C 17.5468 17 17.8282 16.8682 18.0182 16.6402 L 20.5182 13.6402 C 20.7666 13.3421 20.8202 12.9272 20.6556 12.5758 C 20.491 12.2245 20.138 12 19.75 12 L 18.25 12 L 18.25 7.5 Z" stroke-linecap="round" />
</g>
</svg>